<?xml version="1.0" standalone="no"?>
<!DOCTYPE svg PUBLIC "-//W3C//DTD SVG 20010904//EN"
 "http://www.w3.org/TR/2001/REC-SVG-20010904/DTD/svg10.dtd">
<svg version="1.0" xmlns="http://www.w3.org/2000/svg"
 width="640.000000pt" height="640.000000pt" viewBox="0 0 640.000000 640.000000"
 preserveAspectRatio="xMidYMid meet">
<metadata>
Created by potrace 1.14, written by Peter Selinger 2001-2017
</metadata>
<g transform="translate(0.000000,640.000000) scale(0.100000,-0.100000)"
fill="#000000" stroke="none">
<path d="M2285 6066 c-40 -17 -84 -63 -101 -103 -11 -26 -14 -129 -14 -503 l0
-470 1030 0 1030 0 0 470 c0 444 -1 473 -19 508 -23 45 -66 87 -104 101 -45
17 -1783 14 -1822 -3z"/>
<path d="M2667 4943 c-3 -5 -4 -75 -3 -158 l1 -150 533 -3 532 -2 0 160 0 160
-529 0 c-292 0 -532 -3 -534 -7z"/>
<path d="M2401 4440 c-65 -88 -111 -142 -125 -145 -11 -2 -100 -9 -196 -14
-408 -25 -516 -32 -537 -37 -12 -2 -131 -102 -264 -221 l-242 -217 6 -996 c4
-547 7 -1266 7 -1598 l0 -603 296 -145 296 -144 1558 0 1558 0 290 141 290
142 6 361 c3 198 8 920 12 1602 l6 1241 -234 208 c-128 114 -242 213 -253 220
-13 8 -148 20 -375 34 -195 12 -364 24 -376 26 -12 3 -61 59 -124 145 l-104
140 -696 0 -696 0 -103 -140z m2544 -781 l88 -110 -7 -122 c-7 -118 -20 -351
-86 -1502 l-32 -540 -96 -180 c-52 -99 -100 -183 -106 -187 -14 -10 -2998 -10
-3012 0 -6 4 -54 88 -107 187 l-95 180 -32 540 c-63 1091 -79 1383 -86 1502
l-7 122 88 110 88 111 1657 0 1657 0 88 -111z m-3735 -45 l109 -85 5 -52 c3
-29 19 -299 36 -602 17 -302 50 -912 75 -1355 25 -443 49 -865 53 -938 4 -72
5 -132 2 -132 -3 0 -92 41 -197 92 l-193 92 -1 486 c-1 267 -5 956 -8 1533 -3
576 -2 1047 2 1047 5 0 57 -38 117 -86z m4103 -236 c-1 -178 -5 -868 -9 -1534
l-6 -1211 -194 -93 c-107 -51 -196 -91 -197 -89 -2 2 0 58 4 124 4 66 13 210
19 320 6 110 26 472 45 805 19 333 48 857 65 1165 16 308 33 584 36 612 l5 53
107 84 c59 47 112 85 117 86 7 0 9 -113 8 -322z"/>
<path d="M1557 3566 l-47 -64 25 -428 c13 -236 38 -665 55 -954 44 -777 31
-679 112 -830 l70 -130 1428 0 1428 0 70 130 c81 151 68 53 112 830 17 289 42
718 55 954 l25 428 -47 64 -48 63 -1595 0 -1595 0 -48 -63z m1733 10 c0 -6
-20 -67 -45 -136 -24 -69 -76 -215 -114 -325 -38 -110 -113 -324 -166 -475
-53 -151 -157 -448 -231 -660 -75 -212 -166 -473 -204 -580 l-68 -195 -321 -3
-321 -2 -12 25 c-9 21 -3 47 45 182 31 87 99 282 152 433 53 151 116 331 140
400 24 69 90 256 145 415 56 160 119 340 140 400 22 61 69 196 105 300 36 105
70 200 75 213 l10 23 335 -2 c238 -1 335 -5 335 -13z m800 0 c0 -12 -92 -283
-163 -481 -14 -38 -62 -176 -107 -305 -45 -129 -108 -309 -140 -400 -32 -91
-120 -340 -195 -555 -75 -214 -155 -444 -179 -510 l-42 -120 -107 -3 c-59 -1
-107 -1 -107 1 0 4 99 289 235 677 53 151 115 327 136 390 22 63 67 189 99
280 32 91 90 256 129 368 164 468 214 609 227 640 l13 32 100 0 c79 0 101 -3
101 -14z m370 1 c0 -8 -9 -38 -19 -68 -10 -30 -50 -144 -89 -254 -128 -366
-473 -1349 -502 -1430 -16 -44 -71 -201 -123 -350 l-94 -270 -52 -3 c-28 -2
-51 -1 -51 1 0 3 160 462 275 787 103 294 243 691 280 800 84 242 275 782 280
791 10 15 95 11 95 -4z"/>
</g>
</svg>
